<svg width="789" height="390" viewBox="0 0 789 390" fill="none" xmlns="http://www.w3.org/2000/svg">
<path d="M21.5567 131.685C24.2454 100.984 46.0025 59.5394 17.6865 12.3859C-8.43321 -26.8154 148.667 30.8467 148.667 131.685C148.577 176.314 122.164 202.926 108.256 206.091C128.183 164.582 103.564 121.716 86.3608 118.641C67.2659 126.239 56.6327 168.545 78.3548 209.883C40.7353 199.362 18.868 162.386 21.5567 131.685Z" fill="url(#paint0_linear_2114_199)"/>
<path d="M270.737 151.369C270.737 134.901 254.637 86.332 277.585 48.1175C298.753 16.3478 171.435 63.0786 171.435 144.801C171.509 180.969 192.914 202.536 204.185 205.101C188.036 171.461 207.988 136.721 221.93 134.229C237.405 140.387 246.022 174.673 228.418 208.175C258.906 199.648 270.737 167.836 270.737 151.369Z" fill="url(#paint1_linear_2114_199)"/>
<path d="M100.843 190.751C101.443 202.684 98.1249 212.542 93.4325 212.769C88.7401 212.996 84.4498 203.507 83.8499 191.574C83.25 179.641 86.5676 169.783 91.26 169.556C95.9525 169.329 100.243 178.818 100.843 190.751Z" fill="url(#paint2_linear_2114_199)"/>
<path d="M210.193 192.669C209.707 202.34 212.395 210.329 216.198 210.513C220.001 210.697 223.478 203.007 223.964 193.336C224.45 183.665 221.762 175.676 217.959 175.492C214.156 175.308 210.679 182.998 210.193 192.669Z" fill="url(#paint3_linear_2114_199)"/>
<path d="M134.609 258.705C134.634 258.657 148.248 232.109 160.217 245.544C172.197 258.991 139.984 285.583 135.572 288.036C127.596 283.909 98.0444 260.883 109.98 249.448C121.899 238.028 134.575 258.649 134.609 258.705Z" fill="url(#paint4_radial_2114_199)"/>
<path d="M250.991 218.804C274.078 217.319 296.051 227.947 306.338 247.877C314.454 263.601 313.544 281.725 305.531 297.291C303.05 303.087 298.661 309.052 291.885 315.123C287.287 319.362 281.972 323.074 276.013 326.068C271.376 328.397 266.612 330.159 261.815 331.38C195.025 350.128 94.2733 294.583 93.9614 294.411L94.5066 294.137C94.971 294.324 179.678 328.345 240.634 308.434C245.016 307.096 249.416 305.345 253.751 303.167C259.346 300.356 264.423 297.042 268.899 293.38C275.397 288.189 279.787 283.278 282.48 278.652C290.951 266.051 293.319 252.084 287.449 240.71C280.654 227.544 267.473 218.96 250.991 218.804Z" fill="url(#paint5_linear_2114_199)"/>
<path d="M88.6154 228.596C56.0759 224.76 24.2555 238.516 8.86392 266.191C-3.01963 287.558 -2.54631 312.614 7.84397 334.434C11.0101 342.514 16.7895 350.905 25.8379 359.541C32.0138 365.609 39.2105 370.975 47.3332 375.37C53.6426 378.784 60.1528 381.419 66.732 383.304C158.127 411.944 299.604 339.451 299.964 339.266L299.225 338.865C299.022 338.94 180.314 382.601 96.8858 352.496C90.9084 350.469 84.925 347.872 79.0489 344.692C71.4953 340.605 64.6696 335.853 58.6775 330.651C49.8717 323.181 43.9914 316.187 40.4595 309.663C29.3131 291.918 26.6477 272.541 35.2418 257.088C45.0924 239.376 65.0293 228.262 88.6154 228.596Z" fill="url(#paint6_linear_2114_199)"/>
<path d="M372.634 325.267C372.634 326.913 371.603 327.942 369.952 327.942H354.476C353.032 327.942 352 326.913 352 325.267V190.47C352 189.029 353.032 188 354.476 188H371.603C373.666 188 374.904 188.617 375.936 190.264L443.823 295.632V190.47C443.823 189.029 444.855 188 446.3 188H461.775C463.426 188 464.458 189.029 464.458 190.47V325.267C464.458 326.913 463.426 327.942 461.775 327.942H445.268C443.411 327.942 442.379 327.119 440.935 325.061L372.634 220.31V325.267Z" fill="url(#paint7_linear_2114_199)"/>
<path d="M537.083 330C509.433 330 492.719 313.536 492.719 286.165C492.719 259 509.433 242.536 537.083 242.536C564.527 242.536 581.241 259 581.241 286.165C581.241 313.536 564.527 330 537.083 330ZM537.083 312.713C551.527 312.713 559.575 302.217 559.575 286.165C559.575 270.319 551.527 259.617 537.083 259.617C522.639 259.617 514.592 270.319 514.592 286.165C514.592 302.217 522.639 312.713 537.083 312.713Z" fill="url(#paint8_linear_2114_199)"/>
<path d="M681.323 323.003C672.45 327.736 659.451 330 647.483 330C616.943 330 599.61 313.536 599.61 286.165C599.61 259 616.531 242.536 642.737 242.536C665.847 242.536 681.117 257.559 681.117 280.403C681.117 282.255 681.117 285.342 680.704 287.4C680.498 289.046 679.672 289.664 677.815 289.664H621.07C622.721 304.893 632.832 313.742 649.34 313.742C659.244 313.742 668.942 310.655 675.133 307.98C677.402 307.157 678.434 307.568 679.26 309.626L682.561 319.299C683.18 320.945 683.18 321.974 681.323 323.003ZM642.324 258.177C631.388 258.177 623.34 266.203 621.277 278.757H661.72C660.482 264.557 653.467 258.177 642.324 258.177Z" fill="url(#paint9_linear_2114_199)"/>
<path d="M706.028 325.267V190.47C706.028 189.029 707.266 188 708.71 188H723.98C725.837 188 726.662 189.029 726.662 190.47V276.287L759.471 246.652C761.328 244.8 762.36 244.594 765.455 244.594H780.725C783.614 244.594 784.233 246.241 781.963 248.299L744.614 282.049L787.741 324.032C790.01 326.501 788.979 327.942 786.502 327.942H768.55C765.043 327.942 764.011 327.119 762.154 324.855L726.662 288.635V325.267C726.662 326.913 725.837 327.942 723.98 327.942H708.71C707.266 327.942 706.028 326.913 706.028 325.267Z" fill="url(#paint10_linear_2114_199)"/>
<defs>
<linearGradient id="paint0_linear_2114_199" x1="147.358" y1="0" x2="147.358" y2="209.883" gradientUnits="userSpaceOnUse">
<stop stop-color="#F9D2CF"/>
<stop offset="0.8" stop-color="#DA9B53"/>
</linearGradient>
<linearGradient id="paint1_linear_2114_199" x1="147.358" y1="0" x2="147.358" y2="209.883" gradientUnits="userSpaceOnUse">
<stop stop-color="#F9D2CF"/>
<stop offset="0.8" stop-color="#DA9B53"/>
</linearGradient>
<linearGradient id="paint2_linear_2114_199" x1="153.9" y1="169.552" x2="153.9" y2="212.773" gradientUnits="userSpaceOnUse">
<stop stop-color="#694EC4"/>
<stop offset="0.8" stop-color="#372951"/>
</linearGradient>
<linearGradient id="paint3_linear_2114_199" x1="153.9" y1="169.552" x2="153.9" y2="212.773" gradientUnits="userSpaceOnUse">
<stop stop-color="#694EC4"/>
<stop offset="0.8" stop-color="#372951"/>
</linearGradient>
<radialGradient id="paint4_radial_2114_199" cx="0" cy="0" r="1" gradientUnits="userSpaceOnUse" gradientTransform="translate(135.024 264.892) scale(27.847 23.1434)">
<stop stop-color="#FBC17F"/>
<stop offset="1" stop-color="#DA9B53"/>
</radialGradient>
<linearGradient id="paint5_linear_2114_199" x1="156" y1="218.667" x2="156" y2="390" gradientUnits="userSpaceOnUse">
<stop stop-color="#694EC4"/>
<stop offset="0.8" stop-color="#372951"/>
</linearGradient>
<linearGradient id="paint6_linear_2114_199" x1="156" y1="218.667" x2="156" y2="390" gradientUnits="userSpaceOnUse">
<stop stop-color="#694EC4"/>
<stop offset="0.8" stop-color="#372951"/>
</linearGradient>
<linearGradient id="paint7_linear_2114_199" x1="570.5" y1="188" x2="570.5" y2="330" gradientUnits="userSpaceOnUse">
<stop stop-color="#694EC4"/>
<stop offset="0.8" stop-color="#372951"/>
</linearGradient>
<linearGradient id="paint8_linear_2114_199" x1="570.5" y1="188" x2="570.5" y2="330" gradientUnits="userSpaceOnUse">
<stop stop-color="#694EC4"/>
<stop offset="0.8" stop-color="#372951"/>
</linearGradient>
<linearGradient id="paint9_linear_2114_199" x1="570.5" y1="188" x2="570.5" y2="330" gradientUnits="userSpaceOnUse">
<stop stop-color="#694EC4"/>
<stop offset="0.8" stop-color="#372951"/>
</linearGradient>
<linearGradient id="paint10_linear_2114_199" x1="570.5" y1="188" x2="570.5" y2="330" gradientUnits="userSpaceOnUse">
<stop stop-color="#694EC4"/>
<stop offset="0.8" stop-color="#372951"/>
</linearGradient>
</defs>
</svg>
